<svg width="263" height="205" viewBox="0 0 263 205" fill="none" xmlns="http://www.w3.org/2000/svg">
<path fill-rule="evenodd" clip-rule="evenodd" d="M261.403 190.896C261.361 191.023 261.308 191.15 261.245 191.267L261.247 191.265C261.184 191.393 261.121 191.509 260.995 191.594C260.946 191.672 260.897 191.74 260.848 191.809C260.823 191.843 260.799 191.877 260.774 191.912C260.69 192.018 260.596 192.135 260.501 192.241L260.501 192.242C260.417 192.326 260.333 192.411 260.238 192.496C260.133 192.602 260.018 192.697 259.902 192.782C259.807 192.846 259.692 192.92 259.587 192.984C259.533 193.011 259.482 193.04 259.429 193.069C259.359 193.108 259.287 193.149 259.208 193.185C259.12 193.23 259.026 193.264 258.93 193.299L258.886 193.315C258.86 193.325 258.834 193.334 258.809 193.344C258.781 193.355 258.754 193.367 258.727 193.379L258.727 193.379C258.673 193.402 258.619 193.426 258.557 193.44C258.514 193.45 258.483 193.44 258.441 193.45C258.115 193.535 257.779 193.588 257.432 193.588C256.959 193.588 256.791 193.663 256.791 193.663C256.597 193.889 256.246 195.019 256.024 195.736L256.024 195.736L256.002 195.805C255.182 198.457 253.469 203.973 246.542 203.973C240.617 203.973 237.674 200.003 235.52 197.099L235.505 197.078C233.487 194.331 232.72 193.588 231.206 193.588C229.692 193.588 228.935 194.331 226.907 197.067L226.892 197.087C224.738 199.992 221.795 203.962 215.859 203.962C209.934 203.962 206.991 199.992 204.837 197.088L204.822 197.067C202.804 194.331 202.037 193.588 200.523 193.588C199.02 193.588 198.252 194.331 196.224 197.078C194.079 199.985 191.125 203.973 185.187 203.973C179.251 203.973 176.308 200.003 174.154 197.099L174.139 197.078C172.121 194.342 171.354 193.599 169.84 193.599C168.326 193.599 167.569 194.341 165.541 197.078C163.396 199.985 160.453 203.973 154.504 203.973C148.579 203.973 145.635 200.003 143.482 197.099L143.467 197.078C141.448 194.342 140.681 193.599 139.167 193.599C137.664 193.599 136.897 194.342 134.868 197.089C132.724 199.995 129.77 203.984 123.831 203.984C117.906 203.984 114.963 200.014 112.809 197.109L112.794 197.089C110.776 194.352 110.009 193.61 108.495 193.61C106.992 193.61 106.224 194.353 104.196 197.1C102.051 200.006 99.0975 203.995 93.1587 203.995C91.277 203.995 89.5637 203.221 88.3549 201.82C85.4222 198.447 86.0109 192.698 87.2197 183.597L87.2403 183.439C87.672 180.146 88.3304 175.124 88.1131 172.682C80.2614 174.229 69.1192 190.11 63.338 201.662C62.6233 203.104 61.1623 203.995 59.5856 203.995H59.5852C59.5012 203.995 59.4173 203.995 59.3333 203.985C57.662 203.889 56.2009 202.797 55.6333 201.206C54.6663 198.509 46.4044 174.506 54.9921 161.225C58.2086 156.26 63.4222 153.407 70.0865 152.972C75.8781 152.59 78.527 151.02 79.0315 149.779C79.3679 148.952 78.8318 147.541 77.6546 146.194C74.5221 142.598 67.5214 139.713 59.554 141.898C48.5059 144.912 36.1237 159.858 31.9507 175.218C30.4895 180.617 28.9127 190.609 34.8832 196.793C36.502 198.48 36.46 201.163 34.7992 202.797C33.1278 204.431 30.4791 204.399 28.8498 202.712C22.2592 195.892 20.4828 185.327 23.8359 172.98C28.1763 156.983 41.9047 137.922 57.3564 133.711C68.8662 130.571 79.0096 134.899 83.971 140.595C87.4083 144.53 88.4384 149.06 86.8091 153.027C85.3902 156.475 81.4378 160.739 70.6323 161.449C66.6064 161.715 63.7999 163.168 62.0445 165.873C58.5022 171.346 59.3221 181.052 60.9303 188.796C67.2375 178.58 78.306 163.74 89.7633 164.101C91.6133 164.165 93.2846 164.971 94.4619 166.382C95.6392 167.782 96.2173 169.596 96.4275 171.845C104.164 166.679 115.454 161.566 137.738 159.296C113.582 60.5401 158.992 4.946 161.052 2.49567C161.07 2.47796 161.088 2.46395 161.104 2.45055C161.128 2.43184 161.15 2.41432 161.168 2.3896C161.294 2.25169 161.42 2.13501 161.557 2.01833C161.641 1.93347 161.725 1.85922 161.82 1.79557C161.949 1.70868 162.078 1.63603 162.213 1.56013L162.303 1.50916C162.387 1.45612 162.471 1.40309 162.566 1.36066C162.766 1.27579 162.965 1.21215 163.176 1.15911C163.225 1.15204 163.274 1.13554 163.323 1.11904C163.347 1.11079 163.372 1.10254 163.396 1.09547C163.68 1.03182 163.975 1 164.279 1L164.9 1.02121C166.14 1.02121 167.307 1.5622 168.105 2.51687C170.166 4.95542 215.354 60.2653 191.63 158.543C253.667 162.213 261.256 187.194 261.55 188.286C261.555 188.307 261.558 188.331 261.561 188.355L261.561 188.356C261.562 188.369 261.564 188.383 261.566 188.397C261.567 188.406 261.569 188.415 261.571 188.424L261.634 188.838C261.655 188.986 261.676 189.135 261.676 189.283C261.676 189.293 261.677 189.302 261.678 189.311C261.679 189.323 261.68 189.335 261.682 189.347L261.682 189.35C261.684 189.37 261.687 189.39 261.687 189.411C261.687 189.487 261.678 189.554 261.669 189.629L261.669 189.629L261.666 189.655L261.665 189.669C261.655 189.814 261.644 189.967 261.613 190.111C261.592 190.238 261.561 190.365 261.529 190.492L261.529 190.493C261.523 190.511 261.518 190.53 261.513 190.549C261.506 190.572 261.499 190.595 261.493 190.618L261.493 190.618C261.466 190.714 261.44 190.807 261.403 190.896ZM168.482 171.611H179.351C203.286 92.619 180.77 39.368 168.482 18.2271V171.611ZM160.073 19.3406V171.611H149.824C126.352 94.1562 147.69 41.2441 160.073 19.3406ZM248.001 193.394L248.022 193.325L248.019 193.325C248.513 191.734 249.354 189.124 251.424 187.289C246.769 181.349 232.085 169.15 189.461 166.933C188.536 170.296 187.537 173.701 186.444 177.159C185.887 178.92 184.268 180.118 182.439 180.118H146.723C144.894 180.118 143.275 178.92 142.718 177.159C141.709 173.934 140.784 170.763 139.912 167.633C112.886 170.2 103.216 177.042 95.8266 182.813C95.7938 183.061 95.7625 183.308 95.731 183.557C95.6819 183.946 95.632 184.34 95.5743 184.754C95.1644 187.851 94.5337 192.625 94.6598 195.17C95.4272 194.714 96.2051 193.781 97.4664 192.062L97.4815 192.042C99.635 189.138 102.578 185.167 108.514 185.167C114.439 185.167 117.382 189.137 119.536 192.042L119.551 192.062C121.569 194.799 122.337 195.542 123.85 195.542C125.364 195.542 126.121 194.799 128.149 192.062L128.164 192.042C130.318 189.138 133.261 185.167 139.197 185.167C145.122 185.167 148.065 189.137 150.219 192.042L150.234 192.062C152.263 194.799 153.03 195.542 154.533 195.542C156.047 195.542 156.804 194.799 158.832 192.062C160.977 189.156 163.92 185.167 169.869 185.167C175.795 185.167 178.738 189.137 180.891 192.042L180.906 192.062C182.935 194.81 183.702 195.552 185.216 195.552C186.73 195.552 187.487 194.81 189.515 192.073L189.53 192.053C191.684 189.148 194.627 185.178 200.563 185.178C206.488 185.178 209.431 189.148 211.585 192.053L211.6 192.073C213.618 194.81 214.385 195.552 215.899 195.552C217.413 195.552 218.18 194.81 220.209 192.062C222.353 189.156 225.307 185.167 231.246 185.167C237.181 185.167 240.125 189.137 242.278 192.042L242.293 192.062C244.322 194.799 245.089 195.542 246.593 195.542C247.066 195.542 247.234 195.467 247.234 195.467C247.427 195.241 247.778 194.111 248.001 193.394Z" fill="white"/>
<path d="M261.245 191.267L260.806 191.029L261.564 191.652L261.245 191.267ZM261.403 190.896L260.941 190.705L260.934 190.722L260.928 190.739L261.403 190.896ZM261.247 191.265L261.695 191.487L260.929 190.88L261.247 191.265ZM260.995 191.594L260.716 191.179L260.628 191.238L260.572 191.327L260.995 191.594ZM260.848 191.809L260.442 191.517L260.442 191.517L260.848 191.809ZM260.774 191.912L261.166 192.223L261.176 192.21L261.185 192.197L260.774 191.912ZM260.501 192.241L260.855 192.595L260.865 192.585L260.874 192.574L260.501 192.241ZM260.501 192.242L260.147 191.888L260.146 191.89L260.501 192.242ZM260.238 192.496L259.904 192.124L259.894 192.133L259.883 192.144L260.238 192.496ZM259.902 192.782L260.181 193.197L260.19 193.191L260.198 193.185L259.902 192.782ZM259.587 192.984L259.812 193.43L259.829 193.421L259.846 193.411L259.587 192.984ZM259.429 193.069L259.185 192.633L259.185 192.633L259.429 193.069ZM259.208 193.185L258.997 192.732L258.99 192.735L258.983 192.739L259.208 193.185ZM258.93 193.299L258.759 192.829L258.758 192.83L258.93 193.299ZM258.886 193.315L258.714 192.846L258.713 192.846L258.886 193.315ZM258.809 193.344L258.986 193.812L258.99 193.811L258.809 193.344ZM258.727 193.379L258.908 193.845L258.918 193.841L258.928 193.836L258.727 193.379ZM258.727 193.379L258.546 192.913L258.536 192.917L258.526 192.921L258.727 193.379ZM258.557 193.44L258.447 192.952L258.434 192.955L258.557 193.44ZM258.441 193.45L258.319 192.966L258.315 192.967L258.441 193.45ZM256.791 193.663L256.589 193.205L256.485 193.251L256.411 193.338L256.791 193.663ZM256.024 195.736L256.498 195.894L256.501 195.884L256.024 195.736ZM256.024 195.736L255.549 195.578L255.546 195.588L256.024 195.736ZM256.002 195.805L255.525 195.657L255.525 195.658L256.002 195.805ZM235.52 197.099L235.922 196.801L235.922 196.801L235.52 197.099ZM235.505 197.078L235.102 197.374L235.104 197.376L235.505 197.078ZM226.907 197.067L227.308 197.365L227.308 197.365L226.907 197.067ZM226.892 197.087L226.49 196.79L226.49 196.79L226.892 197.087ZM204.837 197.088L205.239 196.79L205.239 196.79L204.837 197.088ZM204.822 197.067L204.42 197.364L204.421 197.365L204.822 197.067ZM196.224 197.078L195.821 196.781L195.821 196.781L196.224 197.078ZM174.154 197.099L174.556 196.801L174.556 196.801L174.154 197.099ZM174.139 197.078L173.737 197.375L173.738 197.376L174.139 197.078ZM165.541 197.078L165.139 196.78L165.138 196.781L165.541 197.078ZM143.482 197.099L143.884 196.801L143.883 196.801L143.482 197.099ZM143.467 197.078L143.064 197.375L143.065 197.376L143.467 197.078ZM134.868 197.089L134.466 196.792L134.466 196.792L134.868 197.089ZM112.809 197.109L113.211 196.812L113.211 196.812L112.809 197.109ZM112.794 197.089L112.392 197.386L112.393 197.387L112.794 197.089ZM104.196 197.1L103.793 196.803L103.793 196.803L104.196 197.1ZM88.3549 201.82L88.7334 201.494L88.7322 201.492L88.3549 201.82ZM87.2197 183.597L87.7153 183.662L87.7154 183.662L87.2197 183.597ZM87.2403 183.439L86.7446 183.374L86.7446 183.374L87.2403 183.439ZM88.1131 172.682L88.6112 172.637L88.5619 172.083L88.0164 172.191L88.1131 172.682ZM63.338 201.662L62.8909 201.438L62.89 201.44L63.338 201.662ZM59.3333 203.985L59.396 203.489L59.3789 203.487L59.3618 203.486L59.3333 203.985ZM55.6333 201.206L56.1042 201.038L56.104 201.037L55.6333 201.206ZM54.9921 161.225L54.5725 160.953L54.5723 160.953L54.9921 161.225ZM70.0865 152.972L70.119 153.471L70.1193 153.471L70.0865 152.972ZM79.0315 149.779L79.4947 149.968L79.4947 149.968L79.0315 149.779ZM77.6546 146.194L77.2775 146.522L77.2781 146.523L77.6546 146.194ZM59.554 141.898L59.6856 142.38L59.6862 142.38L59.554 141.898ZM31.9507 175.218L31.4682 175.086L31.4681 175.087L31.9507 175.218ZM34.8832 196.793L35.244 196.447L35.243 196.446L34.8832 196.793ZM34.7992 202.797L35.1486 203.155L35.1498 203.153L34.7992 202.797ZM28.8498 202.712L29.2095 202.365L29.2094 202.365L28.8498 202.712ZM23.8359 172.98L24.3184 173.111L24.3184 173.111L23.8359 172.98ZM57.3564 133.711L57.4879 134.193L57.488 134.193L57.3564 133.711ZM83.971 140.595L83.594 140.923L83.5945 140.924L83.971 140.595ZM86.8091 153.027L87.2715 153.217L87.2716 153.217L86.8091 153.027ZM70.6323 161.449L70.5994 160.95L70.5994 160.95L70.6323 161.449ZM62.0445 165.873L61.6251 165.601L61.6248 165.601L62.0445 165.873ZM60.9303 188.796L60.4408 188.897L60.6961 190.127L61.3558 189.058L60.9303 188.796ZM89.7633 164.101L89.7805 163.601L89.779 163.601L89.7633 164.101ZM94.4619 166.382L94.078 166.702L94.0792 166.704L94.4619 166.382ZM96.4275 171.845L95.9297 171.891L96.0077 172.726L96.7052 172.26L96.4275 171.845ZM137.738 159.296L137.789 159.793L138.36 159.735L138.224 159.177L137.738 159.296ZM161.052 2.49567L160.697 2.14374L160.683 2.15826L160.67 2.1739L161.052 2.49567ZM161.104 2.45055L160.792 2.05979L160.792 2.05983L161.104 2.45055ZM161.168 2.3896L160.799 2.05214L160.782 2.07093L160.767 2.09136L161.168 2.3896ZM161.557 2.01833L161.882 2.39856L161.897 2.38505L161.912 2.37027L161.557 2.01833ZM161.82 1.79557L161.541 1.38071L161.541 1.38072L161.82 1.79557ZM162.213 1.56013L162.458 1.9959L162.459 1.99558L162.213 1.56013ZM162.303 1.50916L162.549 1.94462L162.56 1.9386L162.57 1.93207L162.303 1.50916ZM162.566 1.36066L162.37 0.900381L162.361 0.904439L162.566 1.36066ZM163.176 1.15911L163.104 0.664225L163.079 0.667937L163.053 0.674302L163.176 1.15911ZM163.323 1.11904L163.482 1.59295L163.482 1.59293L163.323 1.11904ZM163.396 1.09547L163.287 0.607587L163.272 0.610879L163.258 0.615048L163.396 1.09547ZM164.279 1L164.296 0.500292L164.288 0.5H164.279V1ZM164.9 1.02121L164.882 1.52092L164.891 1.52121H164.9V1.02121ZM168.105 2.51687L167.722 2.83775L167.724 2.83955L168.105 2.51687ZM191.63 158.543L191.144 158.426L191.004 159.007L191.6 159.042L191.63 158.543ZM261.55 188.286L262.036 188.166L262.033 188.156L261.55 188.286ZM261.561 188.355L261.064 188.41L261.065 188.418L261.066 188.426L261.561 188.355ZM261.561 188.356L262.058 188.301L262.057 188.293L262.056 188.285L261.561 188.356ZM261.566 188.397L262.06 188.321L262.06 188.321L261.566 188.397ZM261.571 188.424L262.066 188.349L262.062 188.326L262.057 188.304L261.571 188.424ZM261.634 188.838L262.129 188.768L262.129 188.763L261.634 188.838ZM261.678 189.311L262.176 189.27L262.176 189.269L261.678 189.311ZM261.682 189.347L262.178 189.287L262.178 189.285L261.682 189.347ZM261.682 189.35L261.185 189.409L261.186 189.411L261.682 189.35ZM261.669 189.629L261.173 189.567L261.172 189.574L261.669 189.629ZM261.669 189.629L262.165 189.691L262.166 189.684L261.669 189.629ZM261.666 189.655L261.17 189.592L261.168 189.606L261.167 189.62L261.666 189.655ZM261.665 189.669L262.164 189.704L262.164 189.704L261.665 189.669ZM261.613 190.111L261.124 190.007L261.122 190.018L261.12 190.029L261.613 190.111ZM261.529 190.492L262.014 190.613L262.015 190.612L261.529 190.492ZM261.529 190.493L262.007 190.638L262.011 190.626L262.014 190.614L261.529 190.493ZM261.513 190.549L261.032 190.41L261.032 190.41L261.513 190.549ZM261.493 190.618L261.012 190.482L261.01 190.489L261.493 190.618ZM261.493 190.618L261.974 190.754L261.976 190.747L261.493 190.618ZM179.351 171.611V172.111H179.722L179.829 171.756L179.351 171.611ZM168.482 171.611H167.982V172.111H168.482V171.611ZM168.482 18.2271L168.914 17.9758L167.982 16.3718V18.2271H168.482ZM160.073 171.611V172.111H160.573V171.611H160.073ZM160.073 19.3406H160.573V17.4402L159.637 19.0946L160.073 19.3406ZM149.824 171.611L149.346 171.756L149.453 172.111H149.824V171.611ZM248.022 193.325L248.5 193.473L248.731 192.728L247.957 192.829L248.022 193.325ZM248.001 193.394L247.523 193.246L247.523 193.246L248.001 193.394ZM248.019 193.325L247.541 193.177L247.31 193.922L248.083 193.821L248.019 193.325ZM251.424 187.289L251.756 187.663L252.108 187.351L251.818 186.981L251.424 187.289ZM189.461 166.933L189.487 166.434L189.086 166.413L188.979 166.801L189.461 166.933ZM186.444 177.159L186.921 177.31L186.921 177.31L186.444 177.159ZM142.718 177.159L142.241 177.308L142.241 177.31L142.718 177.159ZM139.912 167.633L140.393 167.499L140.281 167.096L139.864 167.136L139.912 167.633ZM95.8266 182.813L95.5188 182.419L95.3577 182.545L95.3309 182.747L95.8266 182.813ZM95.731 183.557L96.2271 183.62L96.2271 183.62L95.731 183.557ZM95.5743 184.754L95.0791 184.685L95.0786 184.688L95.5743 184.754ZM94.6598 195.17L94.1604 195.195L94.2015 196.024L94.9153 195.6L94.6598 195.17ZM97.4664 192.062L97.0649 191.765L97.0634 191.767L97.4664 192.062ZM97.4815 192.042L97.883 192.34L97.8831 192.34L97.4815 192.042ZM119.536 192.042L119.134 192.34L119.134 192.34L119.536 192.042ZM119.551 192.062L119.953 191.766L119.953 191.765L119.551 192.062ZM128.149 192.062L128.551 192.36L128.551 192.36L128.149 192.062ZM128.164 192.042L127.763 191.744L127.763 191.745L128.164 192.042ZM150.219 192.042L149.817 192.34L149.817 192.34L150.219 192.042ZM150.234 192.062L150.636 191.765L150.635 191.765L150.234 192.062ZM158.832 192.062L159.234 192.36L159.235 192.359L158.832 192.062ZM180.891 192.042L180.49 192.34L180.49 192.34L180.891 192.042ZM180.906 192.062L181.309 191.765L181.308 191.765L180.906 192.062ZM189.515 192.073L189.114 191.775L189.114 191.776L189.515 192.073ZM189.53 192.053L189.932 192.351L189.932 192.351L189.53 192.053ZM211.585 192.053L211.183 192.351L211.183 192.351L211.585 192.053ZM211.6 192.073L212.002 191.777L212.001 191.775L211.6 192.073ZM220.209 192.062L220.611 192.359L220.611 192.359L220.209 192.062ZM242.278 192.042L242.68 191.744L242.68 191.744L242.278 192.042ZM242.293 192.062L241.892 192.36L241.892 192.36L242.293 192.062ZM247.234 195.467L247.436 195.925L247.54 195.879L247.614 195.792L247.234 195.467ZM261.685 191.505C261.765 191.358 261.828 191.202 261.878 191.053L260.928 190.739C260.894 190.844 260.852 190.943 260.806 191.029L261.685 191.505ZM260.929 190.88L260.927 190.882L261.564 191.652L261.566 191.651L260.929 190.88ZM261.274 192.009C261.52 191.844 261.632 191.616 261.695 191.487L260.799 191.043C260.737 191.169 260.723 191.175 260.716 191.179L261.274 192.009ZM261.254 192.1C261.302 192.033 261.36 191.953 261.418 191.861L260.572 191.327C260.532 191.391 260.492 191.448 260.442 191.517L261.254 192.1ZM261.185 192.197C261.207 192.166 261.229 192.135 261.254 192.1L260.442 191.517C260.418 191.551 260.391 191.588 260.364 191.627L261.185 192.197ZM260.874 192.574C260.979 192.457 261.08 192.331 261.166 192.223L260.383 191.602C260.3 191.706 260.213 191.813 260.128 191.908L260.874 192.574ZM260.854 192.595L260.855 192.595L260.148 191.888L260.147 191.888L260.854 192.595ZM260.572 192.868C260.679 192.772 260.773 192.677 260.856 192.594L260.146 191.89C260.06 191.976 259.986 192.05 259.904 192.124L260.572 192.868ZM260.198 193.185C260.329 193.089 260.466 192.977 260.593 192.848L259.883 192.144C259.801 192.227 259.706 192.306 259.606 192.379L260.198 193.185ZM259.846 193.411C259.958 193.343 260.08 193.265 260.181 193.197L259.623 192.367C259.534 192.427 259.425 192.497 259.328 192.556L259.846 193.411ZM259.674 193.505C259.727 193.475 259.77 193.451 259.812 193.43L259.361 192.537C259.297 192.57 259.236 192.604 259.185 192.633L259.674 193.505ZM259.419 193.639C259.518 193.593 259.605 193.544 259.674 193.505L259.185 192.633C259.112 192.673 259.056 192.704 258.997 192.732L259.419 193.639ZM259.102 193.769C259.192 193.736 259.314 193.692 259.433 193.632L258.983 192.739C258.925 192.768 258.859 192.793 258.759 192.829L259.102 193.769ZM259.057 193.785L259.102 193.769L258.758 192.83L258.714 192.846L259.057 193.785ZM258.99 193.811C259.011 193.802 259.034 193.794 259.058 193.785L258.713 192.846C258.686 192.856 258.657 192.867 258.628 192.878L258.99 193.811ZM258.928 193.836C258.957 193.824 258.972 193.817 258.986 193.812L258.632 192.877C258.59 192.893 258.551 192.91 258.526 192.921L258.928 193.836ZM258.908 193.845L258.908 193.845L258.546 192.913L258.546 192.913L258.908 193.845ZM258.666 193.928C258.783 193.902 258.878 193.858 258.928 193.837L258.526 192.921C258.497 192.933 258.482 192.94 258.468 192.945C258.456 192.95 258.45 192.951 258.447 192.952L258.666 193.928ZM258.563 193.935C258.517 193.947 258.477 193.945 258.499 193.945C258.514 193.945 258.59 193.947 258.679 193.925L258.434 192.955C258.481 192.943 258.52 192.945 258.499 192.945C258.483 192.945 258.407 192.943 258.319 192.966L258.563 193.935ZM257.432 194.088C257.83 194.088 258.209 194.027 258.567 193.934L258.315 192.967C258.021 193.043 257.728 193.088 257.432 193.088V194.088ZM256.791 193.663C256.993 194.12 256.992 194.12 256.992 194.12C256.992 194.12 256.992 194.12 256.992 194.12C256.991 194.121 256.991 194.121 256.991 194.121C256.99 194.121 256.99 194.121 256.989 194.122C256.988 194.122 256.987 194.123 256.986 194.123C256.984 194.124 256.982 194.125 256.98 194.125C256.976 194.127 256.973 194.128 256.971 194.129C256.967 194.13 256.966 194.131 256.968 194.13C256.973 194.129 256.99 194.123 257.024 194.117C257.091 194.105 257.221 194.088 257.432 194.088V193.088C257.169 193.088 256.979 193.109 256.844 193.134C256.776 193.146 256.722 193.16 256.68 193.172C256.659 193.179 256.641 193.185 256.626 193.19C256.619 193.193 256.612 193.196 256.605 193.198C256.602 193.199 256.599 193.201 256.597 193.202C256.595 193.202 256.594 193.203 256.592 193.204C256.592 193.204 256.591 193.204 256.591 193.204C256.59 193.205 256.59 193.205 256.59 193.205C256.589 193.205 256.589 193.205 256.589 193.205C256.589 193.205 256.589 193.205 256.791 193.663ZM256.501 195.884C256.613 195.524 256.754 195.071 256.89 194.68C256.959 194.484 257.023 194.311 257.08 194.177C257.146 194.023 257.179 193.978 257.17 193.988L256.411 193.338C256.306 193.46 256.222 193.642 256.161 193.785C256.091 193.949 256.017 194.146 255.946 194.351C255.803 194.761 255.657 195.231 255.546 195.588L256.501 195.884ZM256.498 195.894L256.498 195.894L255.549 195.578L255.549 195.578L256.498 195.894ZM256.48 195.954L256.501 195.884L255.546 195.588L255.525 195.657L256.48 195.954ZM246.542 204.473C250.163 204.473 252.463 203.021 253.95 201.2C255.415 199.405 256.072 197.274 256.48 195.953L255.525 195.658C255.113 196.989 254.503 198.942 253.175 200.567C251.869 202.167 249.848 203.473 246.542 203.473V204.473ZM235.119 197.396C237.264 200.29 240.343 204.473 246.542 204.473V203.473C240.891 203.473 238.083 199.716 235.922 196.801L235.119 197.396ZM235.104 197.376L235.119 197.396L235.922 196.801L235.907 196.78L235.104 197.376ZM231.206 194.088C231.85 194.088 232.306 194.235 232.846 194.687C233.425 195.17 234.087 195.992 235.102 197.374L235.908 196.782C234.905 195.417 234.174 194.493 233.487 193.919C232.76 193.312 232.075 193.088 231.206 193.088V194.088ZM227.308 197.365C228.329 195.988 228.991 195.168 229.57 194.685C230.109 194.235 230.562 194.088 231.206 194.088V193.088C230.336 193.088 229.654 193.312 228.929 193.918C228.243 194.49 227.513 195.41 226.505 196.77L227.308 197.365ZM227.293 197.385L227.308 197.365L226.505 196.769L226.49 196.79L227.293 197.385ZM215.859 204.462C222.069 204.462 225.147 200.28 227.293 197.385L226.49 196.79C224.329 199.705 221.52 203.462 215.859 203.462V204.462ZM204.436 197.385C206.581 200.28 209.66 204.462 215.859 204.462V203.462C210.208 203.462 207.4 199.705 205.239 196.79L204.436 197.385ZM204.421 197.365L204.436 197.386L205.239 196.79L205.224 196.769L204.421 197.365ZM200.523 194.088C201.167 194.088 201.623 194.235 202.163 194.686C202.742 195.168 203.405 195.987 204.42 197.364L205.225 196.77C204.221 195.41 203.491 194.49 202.803 193.917C202.077 193.312 201.392 193.088 200.523 193.088V194.088ZM196.626 197.375C197.646 195.993 198.311 195.171 198.891 194.687C199.432 194.235 199.885 194.088 200.523 194.088V193.088C199.658 193.088 198.976 193.313 198.25 193.919C197.563 194.493 196.83 195.416 195.821 196.781L196.626 197.375ZM185.187 204.473C191.4 204.473 194.489 200.271 196.626 197.375L195.821 196.781C193.67 199.698 190.851 203.473 185.187 203.473V204.473ZM173.753 197.396C175.899 200.291 178.977 204.473 185.187 204.473V203.473C179.525 203.473 176.717 199.716 174.556 196.801L173.753 197.396ZM173.738 197.376L173.753 197.396L174.556 196.801L174.541 196.78L173.738 197.376ZM169.84 194.099C170.484 194.099 170.94 194.246 171.48 194.696C172.059 195.179 172.722 195.998 173.737 197.375L174.542 196.781C173.539 195.421 172.808 194.501 172.12 193.928C171.394 193.323 170.709 193.099 169.84 193.099V194.099ZM165.942 197.376C166.963 195.999 167.625 195.179 168.204 194.696C168.743 194.246 169.196 194.099 169.84 194.099V193.099C168.97 193.099 168.288 193.323 167.563 193.928C166.877 194.501 166.147 195.421 165.139 196.78L165.942 197.376ZM154.504 204.473C160.728 204.473 163.806 200.271 165.943 197.375L165.138 196.781C162.986 199.698 160.178 203.473 154.504 203.473V204.473ZM143.08 197.396C145.226 200.29 148.304 204.473 154.504 204.473V203.473C148.853 203.473 146.045 199.716 143.884 196.801L143.08 197.396ZM143.065 197.376L143.08 197.397L143.883 196.801L143.868 196.78L143.065 197.376ZM139.167 194.099C139.812 194.099 140.268 194.246 140.808 194.696C141.387 195.179 142.049 195.998 143.064 197.375L143.869 196.781C142.866 195.421 142.135 194.501 141.448 193.928C140.721 193.323 140.037 193.099 139.167 193.099V194.099ZM135.27 197.386C136.291 196.004 136.956 195.182 137.535 194.697C138.076 194.246 138.53 194.099 139.167 194.099V193.099C138.302 193.099 137.62 193.324 136.894 193.93C136.207 194.504 135.474 195.427 134.466 196.792L135.27 197.386ZM123.831 204.484C130.045 204.484 133.134 200.282 135.271 197.386L134.466 196.792C132.314 199.709 129.495 203.484 123.831 203.484V204.484ZM112.408 197.407C114.553 200.301 117.632 204.484 123.831 204.484V203.484C118.18 203.484 115.372 199.727 113.211 196.812L112.408 197.407ZM112.393 197.387L112.408 197.407L113.211 196.812L113.196 196.791L112.393 197.387ZM108.495 194.11C109.139 194.11 109.595 194.257 110.135 194.707C110.714 195.19 111.377 196.009 112.392 197.386L113.197 196.792C112.194 195.432 111.463 194.512 110.775 193.939C110.049 193.334 109.364 193.11 108.495 193.11V194.11ZM104.598 197.397C105.618 196.015 106.283 195.193 106.863 194.708C107.404 194.257 107.857 194.11 108.495 194.11V193.11C107.63 193.11 106.948 193.334 106.222 193.941C105.535 194.515 104.802 195.437 103.793 196.803L104.598 197.397ZM93.1587 204.495C99.3723 204.495 102.461 200.293 104.598 197.397L103.793 196.803C101.642 199.719 98.8227 203.495 93.1587 203.495V204.495ZM87.9764 202.147C89.2823 203.66 91.1349 204.495 93.1587 204.495V203.495C91.4191 203.495 89.8451 202.781 88.7334 201.494L87.9764 202.147ZM86.724 183.531C86.1208 188.073 85.665 191.825 85.7344 194.868C85.8038 197.915 86.4001 200.334 87.9776 202.148L88.7322 201.492C87.3771 199.934 86.8013 197.792 86.7341 194.845C86.6668 191.895 87.1098 188.222 87.7153 183.662L86.724 183.531ZM86.7446 183.374L86.7239 183.532L87.7154 183.662L87.7361 183.504L86.7446 183.374ZM87.6151 172.726C87.7191 173.896 87.614 175.72 87.4224 177.693C87.232 179.656 86.9606 181.726 86.7446 183.374L87.7361 183.504C87.9518 181.859 88.2254 179.772 88.4178 177.79C88.609 175.819 88.7244 173.91 88.6112 172.637L87.6151 172.726ZM63.7852 201.885C66.662 196.137 70.8744 189.31 75.3394 183.733C77.572 180.944 79.8589 178.48 82.0647 176.621C84.2796 174.754 86.37 173.535 88.2098 173.172L88.0164 172.191C85.9304 172.602 83.6836 173.949 81.4203 175.856C79.148 177.771 76.8159 180.289 74.5588 183.108C70.0444 188.746 65.7952 195.635 62.8909 201.438L63.7852 201.885ZM59.5856 204.495C61.3512 204.495 62.9865 203.498 63.7861 201.884L62.89 201.44C62.2602 202.711 60.9734 203.495 59.5856 203.495V204.495ZM59.5852 204.495H59.5856V203.495H59.5852V204.495ZM59.2706 204.481C59.391 204.496 59.5063 204.495 59.5852 204.495V203.495C59.4961 203.495 59.4436 203.495 59.396 203.489L59.2706 204.481ZM55.1624 201.374C55.7972 203.153 57.4321 204.377 59.3048 204.484L59.3618 203.486C57.892 203.402 56.6046 202.44 56.1042 201.038L55.1624 201.374ZM54.5723 160.953C50.1751 167.754 50.1184 177.232 51.2345 185.253C52.3542 193.3 54.6741 200.012 55.1627 201.374L56.104 201.037C55.6255 199.703 53.331 193.064 52.2249 185.115C51.1152 177.14 51.2215 167.977 55.412 161.496L54.5723 160.953ZM70.0539 152.473C63.255 152.917 57.8867 155.838 54.5725 160.953L55.4117 161.497C58.5304 156.683 63.5893 153.897 70.119 153.471L70.0539 152.473ZM78.5684 149.591C78.3931 150.022 77.762 150.656 76.3517 151.235C74.9668 151.804 72.9134 152.285 70.0536 152.473L70.1193 153.471C73.0511 153.278 75.218 152.782 76.7317 152.16C78.2198 151.549 79.1654 150.778 79.4947 149.968L78.5684 149.591ZM77.2781 146.523C77.8372 147.163 78.2302 147.803 78.4437 148.36C78.6629 148.933 78.6675 149.347 78.5684 149.591L79.4947 149.968C79.732 149.384 79.6367 148.679 79.3776 148.003C79.1129 147.311 78.6492 146.572 78.031 145.865L77.2781 146.523ZM59.6862 142.38C67.4797 140.243 74.2787 143.08 77.2775 146.522L78.0316 145.866C74.7655 142.116 67.5632 139.183 59.4217 141.416L59.6862 142.38ZM32.4332 175.349C34.4992 167.744 38.6019 160.231 43.5592 154.247C48.5244 148.254 54.3008 143.849 59.6856 142.38L59.4223 141.416C53.7591 142.961 47.8204 147.536 42.7892 153.609C37.7502 159.692 33.5753 167.331 31.4682 175.086L32.4332 175.349ZM35.243 196.446C32.3721 193.472 31.296 189.564 31.1296 185.69C30.9632 181.815 31.7097 178.022 32.4333 175.348L31.4681 175.087C30.7306 177.812 29.958 181.715 30.1305 185.733C30.3031 189.75 31.4239 193.93 34.5235 197.141L35.243 196.446ZM35.1498 203.153C37.0057 201.328 37.0524 198.331 35.244 196.447L34.5225 197.139C35.9516 198.628 35.9142 200.999 34.4485 202.441L35.1498 203.153ZM28.4902 203.06C30.3127 204.946 33.2796 204.981 35.1486 203.155L34.4497 202.439C32.9761 203.88 30.6455 203.851 29.2095 202.365L28.4902 203.06ZM23.3534 172.849C19.9723 185.299 21.7355 196.07 28.4903 203.06L29.2094 202.365C22.7828 195.714 20.9932 185.355 24.3184 173.111L23.3534 172.849ZM57.225 133.228C49.3599 135.372 41.9828 141.275 36.0409 148.611C30.0944 155.952 25.5431 164.779 23.3533 172.849L24.3184 173.111C26.4691 165.185 30.9523 156.482 36.818 149.24C42.6883 141.993 49.9013 136.261 57.4879 134.193L57.225 133.228ZM84.3481 140.267C79.2617 134.427 68.9213 130.038 57.2248 133.228L57.488 134.193C68.8112 131.104 78.7574 135.37 83.594 140.923L84.3481 140.267ZM87.2716 153.217C88.9899 149.033 87.877 144.307 84.3476 140.266L83.5945 140.924C86.9395 144.754 87.8869 149.087 86.3466 152.837L87.2716 153.217ZM70.6651 161.948C76.1274 161.589 79.9032 160.329 82.5073 158.687C85.1169 157.043 86.5251 155.031 87.2715 153.217L86.3468 152.837C85.6742 154.471 84.3968 156.315 81.9741 157.842C79.5459 159.372 75.9427 160.599 70.5994 160.95L70.6651 161.948ZM62.4639 166.145C64.1126 163.604 66.7541 162.206 70.6651 161.948L70.5994 160.95C66.4587 161.223 63.4872 162.731 61.6251 165.601L62.4639 166.145ZM61.4199 188.694C60.62 184.842 60.0196 180.518 60.0559 176.487C60.0924 172.445 60.7693 168.763 62.4643 166.144L61.6248 165.601C59.7774 168.456 59.0931 172.364 59.056 176.478C59.0188 180.605 59.6324 185.005 60.4408 188.897L61.4199 188.694ZM89.779 163.601C83.8358 163.414 78.0751 167.162 73.0636 172.127C68.035 177.11 63.6669 183.412 60.5049 188.533L61.3558 189.058C64.501 183.964 68.8207 177.739 73.7674 172.838C78.7313 167.919 84.2335 164.427 89.7476 164.601L89.779 163.601ZM94.8458 166.061C93.5757 164.539 91.77 163.67 89.7805 163.601L89.7461 164.601C91.4566 164.66 92.9936 165.403 94.078 166.702L94.8458 166.061ZM96.9253 171.798C96.7099 169.494 96.1117 167.567 94.8446 166.06L94.0792 166.704C95.1666 167.997 95.7247 169.698 95.9297 171.891L96.9253 171.798ZM137.688 158.798C115.338 161.075 103.966 166.21 96.1499 171.429L96.7052 172.26C104.362 167.148 115.571 162.057 137.789 159.793L137.688 158.798ZM160.67 2.1739C158.55 4.69474 113.045 60.4486 137.253 159.415L138.224 159.177C114.119 60.6317 159.434 5.19727 161.435 2.81744L160.67 2.1739ZM160.792 2.05983C160.777 2.07184 160.738 2.10261 160.697 2.14374L161.408 2.84761C161.404 2.85115 161.402 2.85289 161.403 2.85213C161.403 2.85169 161.405 2.85073 161.407 2.84891C161.409 2.84693 161.412 2.84481 161.416 2.84127L160.792 2.05983ZM160.767 2.09136C160.781 2.07204 160.794 2.05925 160.8 2.05358C160.803 2.051 160.805 2.04995 160.803 2.05115C160.801 2.05268 160.799 2.05465 160.792 2.05979L161.416 2.84131C161.434 2.82748 161.507 2.77235 161.569 2.68783L160.767 2.09136ZM161.232 1.63809C161.085 1.76343 160.943 1.89456 160.799 2.05214L161.537 2.72705C161.645 2.60883 161.755 2.50659 161.882 2.39856L161.232 1.63809ZM161.541 1.38072C161.41 1.46859 161.3 1.5669 161.202 1.66639L161.912 2.37027C161.982 2.30004 162.04 2.24984 162.099 2.21042L161.541 1.38072ZM161.968 1.12436C161.835 1.19888 161.689 1.28093 161.541 1.38071L162.099 2.21042C162.209 2.13643 162.321 2.07318 162.458 1.9959L161.968 1.12436ZM162.058 1.07371L161.967 1.12467L162.459 1.99558L162.549 1.94462L162.058 1.07371ZM162.361 0.904439C162.23 0.963584 162.117 1.0358 162.037 1.08626L162.57 1.93207C162.658 1.87644 162.713 1.84259 162.771 1.81687L162.361 0.904439ZM163.053 0.674302C162.823 0.732303 162.599 0.803584 162.371 0.900472L162.762 1.82084C162.933 1.748 163.107 1.69199 163.298 1.64392L163.053 0.674302ZM163.163 0.645128C163.137 0.653996 163.123 0.658654 163.111 0.662178C163.1 0.665414 163.099 0.665042 163.104 0.664225L163.247 1.654C163.349 1.63929 163.442 1.60651 163.482 1.59295L163.163 0.645128ZM163.258 0.615048C163.221 0.625671 163.186 0.637517 163.163 0.645149L163.482 1.59293C163.509 1.58406 163.523 1.57941 163.535 1.57589L163.258 0.615048ZM164.279 0.5C163.94 0.5 163.608 0.535506 163.287 0.607587L163.506 1.58335C163.752 1.52814 164.01 1.5 164.279 1.5V0.5ZM164.917 0.521506L164.296 0.500292L164.262 1.49971L164.882 1.52092L164.917 0.521506ZM168.489 2.196C167.595 1.12717 166.287 0.521214 164.9 0.521214V1.52121C165.993 1.52121 167.019 1.99724 167.722 2.83775L168.489 2.196ZM192.116 158.66C215.891 60.1731 170.608 4.70387 168.487 2.1942L167.724 2.83955C169.724 5.20697 214.817 60.3576 191.144 158.426L192.116 158.66ZM262.033 188.156C261.859 187.509 259.825 180.887 250.032 173.973C240.245 167.063 222.74 159.883 191.659 158.044L191.6 159.042C222.556 160.873 239.864 168.018 249.455 174.79C259.039 181.556 260.948 187.971 261.067 188.416L262.033 188.156ZM262.058 188.3C262.056 188.285 262.05 188.226 262.036 188.166L261.065 188.406C261.063 188.4 261.062 188.395 261.062 188.393C261.061 188.39 261.061 188.389 261.061 188.39C261.061 188.391 261.062 188.392 261.062 188.396C261.063 188.4 261.063 188.404 261.064 188.41L262.058 188.3ZM262.056 188.285L262.056 188.285L261.066 188.426L261.066 188.426L262.056 188.285ZM262.06 188.321C262.06 188.321 262.06 188.32 262.06 188.316C262.059 188.312 262.059 188.308 262.058 188.301L261.064 188.41C261.065 188.422 261.068 188.447 261.072 188.472L262.06 188.321ZM262.057 188.304C262.058 188.309 262.059 188.314 262.059 188.316C262.06 188.319 262.06 188.321 262.06 188.321L261.072 188.472C261.075 188.491 261.079 188.516 261.086 188.544L262.057 188.304ZM262.129 188.763L262.066 188.349L261.077 188.5L261.14 188.913L262.129 188.763ZM262.176 189.283C262.176 189.094 262.15 188.91 262.129 188.768L261.139 188.908C261.161 189.063 261.176 189.176 261.176 189.283H262.176ZM262.176 189.269C262.176 189.27 262.176 189.275 262.176 189.283H261.176C261.176 189.31 261.178 189.334 261.179 189.354L262.176 189.269ZM262.178 189.285C262.177 189.279 262.177 189.275 262.176 189.272C262.176 189.27 262.176 189.269 262.176 189.27L261.179 189.353C261.181 189.377 261.184 189.398 261.185 189.409L262.178 189.285ZM262.178 189.291L262.178 189.287L261.185 189.406L261.185 189.409L262.178 189.291ZM262.187 189.411C262.187 189.355 262.18 189.306 262.178 189.289L261.186 189.411C261.186 189.416 261.187 189.419 261.187 189.422C261.187 189.423 261.187 189.424 261.187 189.424C261.187 189.424 261.187 189.425 261.187 189.425C261.187 189.425 261.187 189.425 261.187 189.425C261.187 189.425 261.187 189.425 261.187 189.425C261.187 189.425 261.187 189.424 261.187 189.424C261.187 189.424 261.187 189.423 261.187 189.421C261.187 189.419 261.187 189.415 261.187 189.411H262.187ZM262.165 189.691C262.174 189.62 262.187 189.523 262.187 189.411H261.187C261.187 189.451 261.183 189.489 261.173 189.567L262.165 189.691ZM262.166 189.684L262.166 189.684L261.172 189.574L261.172 189.574L262.166 189.684ZM262.162 189.717L262.165 189.691L261.173 189.567L261.17 189.592L262.162 189.717ZM262.164 189.704L262.165 189.69L261.167 189.62L261.166 189.634L262.164 189.704ZM262.102 190.215C262.141 190.031 262.154 189.842 262.164 189.704L261.166 189.634C261.155 189.785 261.146 189.903 261.124 190.007L262.102 190.215ZM262.015 190.612C262.045 190.489 262.082 190.342 262.107 190.192L261.12 190.029C261.103 190.134 261.076 190.241 261.044 190.372L262.015 190.612ZM262.014 190.614L262.014 190.613L261.044 190.371L261.044 190.371L262.014 190.614ZM261.993 190.688C261.998 190.671 262.003 190.654 262.007 190.638L261.051 190.347C261.044 190.369 261.038 190.39 261.032 190.41L261.993 190.688ZM261.974 190.753C261.981 190.731 261.987 190.709 261.993 190.688L261.032 190.41C261.025 190.435 261.018 190.459 261.012 190.482L261.974 190.753ZM261.976 190.747L261.976 190.746L261.01 190.489L261.01 190.49L261.976 190.747ZM261.865 191.087C261.915 190.966 261.949 190.844 261.974 190.754L261.012 190.483C260.983 190.583 260.964 190.648 260.941 190.705L261.865 191.087ZM179.351 171.111H168.482V172.111H179.351V171.111ZM168.05 18.4783C180.284 39.5284 202.758 92.6359 178.872 171.466L179.829 171.756C203.813 92.6021 181.255 39.2076 168.914 17.9758L168.05 18.4783ZM168.982 171.611V18.2271H167.982V171.611H168.982ZM160.573 171.611V19.3406H159.573V171.611H160.573ZM149.824 172.111H160.073V171.111H149.824V172.111ZM159.637 19.0946C147.204 41.0888 125.826 94.1423 149.346 171.756L150.303 171.466C126.879 94.1701 148.177 41.3994 160.508 19.5867L159.637 19.0946ZM247.545 193.176L247.523 193.246L248.478 193.542L248.5 193.473L247.545 193.176ZM248.083 193.821L248.087 193.82L247.957 192.829L247.954 192.829L248.083 193.821ZM251.093 186.915C248.906 188.853 248.033 191.591 247.541 193.177L248.496 193.473C248.992 191.876 249.801 189.396 251.756 187.663L251.093 186.915ZM189.435 167.433C231.976 169.645 246.497 181.812 251.031 187.598L251.818 186.981C247.041 180.886 232.194 168.655 189.487 166.434L189.435 167.433ZM186.921 177.31C188.016 173.845 189.017 170.434 189.943 167.066L188.979 166.801C188.055 170.158 187.059 173.557 185.967 177.008L186.921 177.31ZM182.439 180.618C184.49 180.618 186.299 179.275 186.921 177.31L185.968 177.008C185.475 178.565 184.047 179.618 182.439 179.618V180.618ZM146.723 180.618H182.439V179.618H146.723V180.618ZM142.241 177.31C142.863 179.275 144.672 180.618 146.723 180.618V179.618C145.116 179.618 143.687 178.565 143.195 177.008L142.241 177.31ZM139.43 167.768C140.303 170.901 141.23 174.078 142.241 177.308L143.195 177.01C142.188 173.791 141.265 170.624 140.393 167.499L139.43 167.768ZM96.1343 183.207C99.815 180.333 104.038 177.212 110.695 174.484C117.358 171.755 126.482 169.411 139.959 168.131L139.864 167.136C126.316 168.423 117.092 170.783 110.316 173.559C103.535 176.337 99.2276 179.522 95.5188 182.419L96.1343 183.207ZM96.2271 183.62C96.2586 183.37 96.2897 183.125 96.3223 182.878L95.3309 182.747C95.2979 182.997 95.2665 183.245 95.235 183.494L96.2271 183.62ZM96.0695 184.823C96.1277 184.405 96.178 184.008 96.2271 183.62L95.235 183.494C95.1858 183.883 95.1363 184.275 95.0791 184.685L96.0695 184.823ZM95.1592 195.146C95.0359 192.657 95.657 187.94 96.07 184.819L95.0786 184.688C94.6718 187.762 94.0315 192.592 94.1604 195.195L95.1592 195.146ZM97.0634 191.767C95.7866 193.506 95.0677 194.346 94.4044 194.741L94.9153 195.6C95.7868 195.082 96.6236 194.056 97.8695 192.358L97.0634 191.767ZM97.0799 191.744L97.0649 191.765L97.868 192.36L97.883 192.34L97.0799 191.744ZM108.514 184.667C102.304 184.667 99.2257 188.85 97.0798 191.744L97.8831 192.34C100.044 189.425 102.853 185.667 108.514 185.667V184.667ZM119.937 191.744C117.792 188.85 114.713 184.667 108.514 184.667V185.667C114.165 185.667 116.973 189.425 119.134 192.34L119.937 191.744ZM119.953 191.765L119.937 191.744L119.134 192.34L119.149 192.36L119.953 191.765ZM123.85 195.042C123.206 195.042 122.75 194.894 122.21 194.444C121.631 193.962 120.969 193.142 119.953 191.766L119.149 192.359C120.152 193.719 120.882 194.64 121.57 195.212C122.296 195.818 122.981 196.042 123.85 196.042V195.042ZM127.748 191.765C126.727 193.142 126.065 193.962 125.486 194.444C124.947 194.895 124.494 195.042 123.85 195.042V196.042C124.72 196.042 125.402 195.817 126.127 195.212C126.813 194.64 127.543 193.72 128.551 192.36L127.748 191.765ZM127.763 191.745L127.748 191.765L128.551 192.36L128.566 192.34L127.763 191.745ZM139.197 184.667C132.987 184.667 129.909 188.85 127.763 191.744L128.566 192.34C130.727 189.425 133.536 185.667 139.197 185.667V184.667ZM150.62 191.744C148.475 188.85 145.396 184.667 139.197 184.667V185.667C144.848 185.667 147.656 189.425 149.817 192.34L150.62 191.744ZM150.635 191.765L150.62 191.744L149.817 192.34L149.832 192.36L150.635 191.765ZM154.533 195.042C153.895 195.042 153.442 194.895 152.901 194.444C152.321 193.961 151.656 193.141 150.636 191.765L149.832 192.36C150.841 193.72 151.574 194.64 152.261 195.212C152.986 195.817 153.668 196.042 154.533 196.042V195.042ZM158.431 191.765C157.41 193.142 156.748 193.962 156.169 194.444C155.63 194.895 155.177 195.042 154.533 195.042V196.042C155.403 196.042 156.085 195.817 156.81 195.212C157.496 194.64 158.226 193.72 159.234 192.36L158.431 191.765ZM169.869 184.667C163.645 184.667 160.567 188.87 158.43 191.766L159.235 192.359C161.387 189.443 164.195 185.667 169.869 185.667V184.667ZM181.293 191.744C179.147 188.85 176.069 184.667 169.869 184.667V185.667C175.52 185.667 178.328 189.425 180.49 192.34L181.293 191.744ZM181.308 191.765L181.293 191.744L180.49 192.34L180.505 192.36L181.308 191.765ZM185.216 195.052C184.572 195.052 184.116 194.905 183.575 194.454C182.994 193.97 182.329 193.147 181.309 191.765L180.504 192.359C181.512 193.725 182.246 194.648 182.934 195.222C183.662 195.828 184.346 196.052 185.216 196.052V195.052ZM189.114 191.776C188.093 193.153 187.431 193.972 186.852 194.455C186.313 194.905 185.86 195.052 185.216 195.052V196.052C186.086 196.052 186.768 195.828 187.493 195.223C188.179 194.651 188.909 193.731 189.917 192.371L189.114 191.776ZM189.129 191.755L189.114 191.775L189.917 192.371L189.932 192.351L189.129 191.755ZM200.563 184.678C194.353 184.678 191.275 188.861 189.129 191.755L189.932 192.351C192.093 189.436 194.902 185.678 200.563 185.678V184.678ZM211.986 191.755C209.841 188.861 206.762 184.678 200.563 184.678V185.678C206.214 185.678 209.022 189.435 211.183 192.351L211.986 191.755ZM212.001 191.775L211.986 191.755L211.183 192.351L211.198 192.371L212.001 191.775ZM215.899 195.052C215.255 195.052 214.799 194.905 214.259 194.455C213.68 193.972 213.017 193.153 212.002 191.777L211.197 192.37C212.201 193.73 212.931 194.65 213.619 195.223C214.345 195.829 215.03 196.052 215.899 196.052V195.052ZM219.807 191.765C218.786 193.147 218.121 193.97 217.541 194.454C216.999 194.905 216.543 195.052 215.899 195.052V196.052C216.769 196.052 217.453 195.828 218.181 195.222C218.87 194.648 219.603 193.725 220.611 192.359L219.807 191.765ZM231.246 184.667C225.032 184.667 221.943 188.869 219.807 191.766L220.611 192.359C222.763 189.443 225.582 185.667 231.246 185.667V184.667ZM242.68 191.744C240.534 188.85 237.456 184.667 231.246 184.667V185.667C236.907 185.667 239.715 189.425 241.876 192.34L242.68 191.744ZM242.695 191.765L242.68 191.744L241.876 192.34L241.892 192.36L242.695 191.765ZM246.593 195.042C245.955 195.042 245.501 194.895 244.96 194.444C244.38 193.961 243.716 193.141 242.695 191.765L241.892 192.36C242.9 193.72 243.633 194.64 244.32 195.212C245.046 195.817 245.727 196.042 246.593 196.042V195.042ZM247.234 195.467C247.032 195.01 247.032 195.01 247.032 195.01C247.032 195.01 247.033 195.01 247.033 195.01C247.033 195.009 247.033 195.009 247.034 195.009C247.034 195.009 247.035 195.009 247.035 195.008C247.037 195.008 247.038 195.007 247.039 195.007C247.041 195.006 247.043 195.005 247.045 195.005C247.048 195.003 247.051 195.002 247.053 195.001C247.057 195 247.058 194.999 247.056 195C247.052 195.001 247.034 195.007 247 195.013C246.933 195.025 246.803 195.042 246.593 195.042V196.042C246.855 196.042 247.046 196.021 247.181 195.996C247.248 195.984 247.302 195.97 247.344 195.958C247.365 195.952 247.383 195.945 247.398 195.94C247.406 195.937 247.413 195.934 247.419 195.932C247.422 195.931 247.425 195.929 247.428 195.928C247.429 195.928 247.431 195.927 247.432 195.926C247.433 195.926 247.433 195.926 247.434 195.926C247.434 195.925 247.434 195.925 247.435 195.925C247.435 195.925 247.435 195.925 247.435 195.925C247.435 195.925 247.436 195.925 247.234 195.467ZM247.523 193.246C247.411 193.606 247.271 194.059 247.134 194.45C247.066 194.646 247.001 194.819 246.944 194.953C246.878 195.107 246.846 195.152 246.854 195.142L247.614 195.792C247.718 195.67 247.803 195.488 247.864 195.345C247.934 195.181 248.007 194.984 248.078 194.779C248.221 194.369 248.367 193.899 248.478 193.542L247.523 193.246Z" fill="#222532"/>
<path d="M27.6001 134.018C27.064 133.371 22.1868 127.738 15.9431 127.738C13.0526 127.738 8.9215 128.937 5.67358 134.633L2.04706 140.998H33.4229L27.6001 134.018Z" fill="white" stroke="#222532"/>
<path fill-rule="evenodd" clip-rule="evenodd" d="M19.4453 149.388L23.7655 149.844L23.2191 154.193C21.6318 165.947 9.35456 178.347 8.829 178.877L3.14232 184.563L1.7338 176.607C0.0624787 167.251 1.25024 160.059 5.25511 155.233C10.8576 148.476 19.4453 149.388 19.4453 149.388ZM11.7194 160.675C10.9731 161.566 10.416 162.701 10.0271 164.037L10.0271 164.037C10.9206 162.69 11.7825 161.279 12.5183 159.858C12.245 160.102 11.9717 160.367 11.7194 160.675Z" fill="white"/>
<path d="M23.7655 149.844L24.2616 149.907L24.3252 149.401L23.818 149.347L23.7655 149.844ZM19.4453 149.388L19.3925 149.885L19.3928 149.886L19.4453 149.388ZM23.2191 154.193L23.7146 154.26L23.7152 154.256L23.2191 154.193ZM8.829 178.877L9.18253 179.231L9.18416 179.229L8.829 178.877ZM3.14232 184.563L2.64998 184.65L2.81727 185.595L3.49585 184.916L3.14232 184.563ZM1.7338 176.607L2.22614 176.52L2.226 176.519L1.7338 176.607ZM5.25511 155.233L5.63989 155.552L5.64001 155.552L5.25511 155.233ZM10.0271 164.037L9.547 163.898L9.49283 164.084L9.57831 164.258L10.0271 164.037ZM11.7194 160.675L12.1028 160.996L12.106 160.992L11.7194 160.675ZM10.0271 164.037L9.57833 164.258L9.96238 165.04L10.4438 164.314L10.0271 164.037ZM12.5183 159.858L12.9623 160.088L12.1853 159.485L12.5183 159.858ZM23.818 149.347L19.4978 148.891L19.3928 149.886L23.713 150.342L23.818 149.347ZM23.7152 154.256L24.2616 149.907L23.2694 149.782L22.723 154.131L23.7152 154.256ZM9.18416 179.229C9.45522 178.955 12.6765 175.702 16.0318 171.036C19.3777 166.383 22.904 160.262 23.7146 154.26L22.7236 154.126C21.9469 159.878 18.5409 165.834 15.2199 170.452C11.9085 175.057 8.72834 178.268 8.47384 178.525L9.18416 179.229ZM3.49585 184.916L9.18252 179.231L8.47547 178.523L2.7888 184.209L3.49585 184.916ZM1.24145 176.694L2.64998 184.65L3.63466 184.476L2.22614 176.52L1.24145 176.694ZM4.87033 154.914C0.731644 159.901 -0.442172 167.27 1.24159 176.695L2.226 176.519C0.56713 167.233 1.76884 160.217 5.63989 155.552L4.87033 154.914ZM19.4453 149.388C19.4981 148.891 19.4979 148.891 19.4976 148.891C19.4975 148.891 19.4972 148.891 19.4969 148.891C19.4964 148.891 19.4957 148.891 19.4949 148.891C19.4933 148.891 19.4912 148.89 19.4885 148.89C19.4833 148.89 19.4759 148.889 19.4666 148.888C19.4479 148.886 19.4211 148.884 19.3865 148.881C19.3174 148.876 19.2174 148.869 19.0892 148.863C18.8329 148.851 18.4638 148.841 18.0047 148.851C17.0871 148.872 15.8061 148.972 14.3453 149.288C11.4245 149.921 7.76319 151.425 4.87021 154.914L5.64001 155.552C8.34948 152.284 11.7832 150.866 14.5569 150.265C15.9434 149.965 17.1595 149.871 18.0272 149.851C18.4607 149.841 18.8062 149.85 19.0415 149.862C19.1591 149.867 19.249 149.874 19.3085 149.878C19.3382 149.88 19.3603 149.882 19.3744 149.884C19.3815 149.884 19.3865 149.885 19.3896 149.885C19.3911 149.885 19.3921 149.885 19.3926 149.885C19.3928 149.886 19.3929 149.886 19.3929 149.886C19.3929 149.886 19.3928 149.886 19.3928 149.886C19.3927 149.886 19.3925 149.885 19.4453 149.388ZM10.5072 164.177C10.8821 162.889 11.4117 161.821 12.1027 160.996L11.3361 160.354C10.5345 161.311 9.94992 162.513 9.547 163.898L10.5072 164.177ZM10.4759 163.817L10.4759 163.817L9.57831 164.258L9.57833 164.258L10.4759 163.817ZM12.0743 159.628C11.3492 161.029 10.4974 162.424 9.61042 163.761L10.4438 164.314C11.3438 162.957 12.2158 161.53 12.9623 160.088L12.0743 159.628ZM12.106 160.992C12.3357 160.712 12.5882 160.466 12.8513 160.231L12.1853 159.485C11.9017 159.738 11.6077 160.022 11.3328 160.358L12.106 160.992Z" fill="#222532"/>
<path fill-rule="evenodd" clip-rule="evenodd" d="M51.8175 125.774C51.8175 130.208 48.2333 133.814 43.8396 133.814C39.4459 133.814 35.8721 130.208 35.8721 125.774C35.8721 121.34 39.4459 117.734 43.8396 117.734C48.2437 117.734 51.8175 121.34 51.8175 125.774ZM44.281 125.774C44.281 125.53 44.0813 125.328 43.8395 125.328C43.5978 125.328 43.4086 125.53 43.4086 125.774C43.4086 126.262 44.281 126.262 44.281 125.774Z" fill="white"/>
<path d="M43.8396 134.314C48.5128 134.314 52.3175 130.481 52.3175 125.774H51.3175C51.3175 129.935 47.9537 133.314 43.8396 133.314V134.314ZM35.3721 125.774C35.3721 130.48 39.1654 134.314 43.8396 134.314V133.314C39.7263 133.314 36.3721 129.936 36.3721 125.774H35.3721ZM43.8396 117.234C39.1654 117.234 35.3721 121.068 35.3721 125.774H36.3721C36.3721 121.612 39.7263 118.234 43.8396 118.234V117.234ZM52.3175 125.774C52.3175 121.068 48.5238 117.234 43.8396 117.234V118.234C47.9637 118.234 51.3175 121.612 51.3175 125.774H52.3175ZM43.8395 125.828C43.8187 125.828 43.8035 125.819 43.7958 125.812C43.7881 125.804 43.781 125.791 43.781 125.774H44.781C44.781 125.258 44.3617 124.828 43.8395 124.828V125.828ZM43.9086 125.774C43.9086 125.783 43.9049 125.795 43.8943 125.806C43.8828 125.818 43.8623 125.828 43.8395 125.828V124.828C43.3018 124.828 42.9086 125.274 42.9086 125.774H43.9086ZM43.781 125.774C43.781 125.758 43.7851 125.732 43.8002 125.703C43.8147 125.675 43.8329 125.657 43.8458 125.648C43.8578 125.639 43.8645 125.637 43.862 125.638C43.8597 125.639 43.8535 125.64 43.8448 125.64C43.836 125.64 43.8298 125.639 43.8275 125.638C43.8251 125.637 43.8318 125.639 43.8438 125.648C43.8567 125.657 43.8749 125.675 43.8894 125.703C43.9044 125.732 43.9086 125.758 43.9086 125.774H42.9086C42.9086 126.065 43.0471 126.301 43.246 126.449C43.4305 126.587 43.6504 126.64 43.8448 126.64C44.0391 126.64 44.2591 126.587 44.4436 126.449C44.6424 126.301 44.781 126.065 44.781 125.774H43.781Z" fill="#222532"/>
</svg>
