<?xml version="1.0" standalone="no"?>
<!DOCTYPE svg PUBLIC "-//W3C//DTD SVG 20010904//EN"
 "http://www.w3.org/TR/2001/REC-SVG-20010904/DTD/svg10.dtd">
<svg version="1.0" xmlns="http://www.w3.org/2000/svg"
 width="1052.000000pt" height="1052.000000pt" viewBox="0 0 1052.000000 1052.000000"
 preserveAspectRatio="xMidYMid meet">
<metadata>
Created by potrace 1.14, written by Peter Selinger 2001-2017
</metadata>
<g transform="translate(0.000000,1052.000000) scale(0.100000,-0.100000)"
fill="#000000" stroke="none">
<path d="M6490 9320 c-44 -23 -82 -63 -153 -165 -31 -44 -60 -84 -65 -90 -18
-22 -161 -255 -197 -320 -22 -38 -47 -83 -57 -100 -18 -31 -151 -296 -153
-305 -1 -3 -15 -34 -32 -70 -79 -166 -175 -413 -255 -655 -33 -99 -62 -187
-63 -195 -2 -8 -4 -15 -5 -15 -1 0 -3 -7 -5 -15 -2 -8 -17 -66 -34 -128 -29
-107 -74 -285 -86 -344 -3 -16 -8 -40 -11 -55 -4 -16 -7 -36 -8 -45 0 -10 -3
-18 -6 -18 -3 0 -6 -8 -7 -17 -2 -35 -11 -89 -26 -163 -8 -41 -18 -93 -21
-115 -3 -22 -8 -51 -10 -65 -5 -27 -16 -106 -21 -155 -2 -16 -6 -52 -10 -80
-11 -90 -16 -129 -20 -180 -11 -121 -27 -336 -31 -410 -5 -95 -5 -684 0 -750
3 -33 7 -107 11 -165 11 -174 23 -329 30 -379 3 -20 7 -63 10 -96 3 -33 8 -71
11 -85 3 -14 8 -47 10 -74 3 -27 11 -89 19 -139 8 -49 14 -92 13 -95 -1 -4 2
-15 7 -25 4 -10 5 -20 2 -23 -3 -3 -1 -19 4 -36 5 -17 11 -47 14 -67 3 -20 8
-48 10 -61 3 -14 7 -38 10 -55 3 -16 11 -55 17 -85 6 -30 13 -64 14 -75 1 -11
10 -51 18 -90 9 -38 19 -83 22 -100 3 -16 14 -67 26 -113 12 -48 17 -87 12
-92 -5 -5 -41 -11 -79 -15 -65 -6 -110 -12 -110 -15 0 0 -18 -3 -40 -5 -63 -6
-129 -15 -145 -20 -8 -3 -31 -7 -50 -9 -19 -3 -57 -10 -85 -16 -27 -5 -75 -15
-105 -20 -53 -10 -101 -23 -220 -57 -30 -8 -61 -17 -70 -18 -8 -2 -16 -4 -17
-5 -2 -2 -6 -3 -10 -4 -27 -6 -163 -54 -243 -86 -126 -50 -247 -109 -345 -169
-75 -46 -80 -48 -83 -28 -2 12 -6 29 -9 37 -3 8 -7 20 -9 25 -10 40 -40 89
-77 127 -58 60 -126 86 -215 82 -65 -3 -117 -9 -117 -14 0 -1 -9 -3 -20 -4
-33 -5 -128 -44 -186 -77 -87 -48 -100 -57 -154 -101 -22 -18 -46 -37 -53 -43
-30 -22 -201 -194 -247 -249 -75 -88 -192 -242 -243 -321 -26 -38 -50 -74 -54
-80 -4 -5 -16 -21 -27 -34 l-18 -25 -8 59 c-4 33 -9 68 -11 78 -32 168 -23
456 19 587 29 92 42 113 109 181 71 73 150 102 308 113 19 2 55 6 80 10 25 4
57 10 72 12 15 2 38 8 52 14 15 5 26 8 26 5 0 -17 222 86 255 119 7 7 26 23
41 37 43 35 100 126 117 187 9 28 13 52 10 52 -3 0 -1 6 3 13 10 14 10 74 -1
127 -4 19 -8 45 -9 57 -4 26 -66 150 -93 185 -31 39 -147 153 -177 173 -111
75 -240 136 -336 160 -125 30 -180 37 -290 38 -86 0 -187 -9 -245 -24 -22 -5
-50 -12 -63 -15 -68 -14 -253 -90 -260 -106 -2 -5 -12 -8 -21 -8 -10 0 -26 -9
-36 -20 -10 -11 -27 -22 -39 -26 -71 -23 -351 -273 -476 -424 -29 -36 -56 -67
-59 -70 -3 -3 -22 -27 -41 -55 -19 -27 -38 -51 -42 -53 -4 -2 -8 -8 -8 -13 0
-10 -62 -103 -72 -107 -5 -2 -8 -8 -8 -13 0 -5 -15 -32 -34 -61 -35 -55 -163
-312 -168 -338 -2 -8 -6 -17 -9 -20 -4 -3 -23 -52 -43 -110 -108 -311 -141
-585 -101 -854 16 -111 79 -279 136 -364 16 -24 29 -45 29 -48 0 -3 6 -11 13
-18 6 -7 29 -34 50 -59 47 -57 87 -79 151 -82 60 -4 93 7 133 44 35 31 67 87
58 101 -3 5 -1 11 4 14 12 8 3 72 -15 106 -7 14 -31 48 -54 75 -98 117 -143
259 -144 455 0 102 9 176 36 300 6 30 12 57 13 60 0 3 4 11 8 18 5 6 6 12 3
12 -3 0 0 17 8 38 8 20 17 46 21 57 4 11 9 27 10 35 7 38 123 283 183 385 36
62 161 243 187 271 5 6 29 34 53 62 98 116 302 302 331 302 6 0 11 4 11 8 0 5
15 16 33 25 17 10 46 25 62 35 35 22 154 70 181 75 11 1 24 5 29 9 43 27 272
26 373 -2 83 -23 163 -57 174 -74 4 -6 8 -7 8 -3 0 23 108 -74 144 -130 48
-72 42 -100 -32 -137 -68 -35 -128 -49 -247 -61 -33 -3 -78 -8 -100 -11 -48
-6 -194 -42 -209 -52 -6 -4 -13 -7 -16 -8 -16 -2 -73 -33 -125 -68 -114 -76
-209 -192 -264 -323 -25 -59 -51 -136 -57 -168 -1 -5 -3 -12 -4 -15 -5 -15
-19 -100 -27 -165 -11 -103 -5 -376 11 -475 3 -14 10 -59 16 -100 14 -87 15
-89 29 -153 6 -26 14 -64 17 -85 3 -20 8 -41 11 -46 3 -4 10 -24 14 -42 5 -19
14 -51 19 -71 6 -21 13 -47 15 -57 2 -11 17 -51 31 -89 40 -104 85 -144 172
-154 90 -9 146 31 206 147 22 41 50 92 63 112 12 21 23 42 23 48 0 5 5 10 10
10 6 0 9 3 8 8 -3 13 168 284 183 290 5 2 9 9 9 15 0 7 9 23 20 37 11 14 58
75 106 135 47 61 95 119 105 130 11 11 42 44 70 72 101 107 210 189 300 227
l36 15 -3 -67 c-4 -84 -12 -176 -19 -222 -4 -19 -8 -55 -11 -80 -2 -25 -7 -56
-9 -70 -2 -14 -7 -52 -10 -85 -4 -33 -9 -73 -11 -90 -3 -16 -7 -79 -10 -140
-3 -60 -7 -116 -9 -123 -3 -6 -1 -12 3 -12 4 0 7 -17 6 -37 0 -34 16 -104 33
-143 3 -8 5 -18 5 -22 -1 -5 2 -8 8 -8 5 0 10 -6 10 -13 0 -22 82 -94 132
-115 37 -16 64 -20 135 -18 79 3 97 7 168 41 87 42 193 138 258 237 50 74 106
125 144 131 46 7 83 -21 155 -114 169 -221 271 -288 453 -294 190 -7 316 66
469 270 96 127 112 140 175 137 38 -2 65 -26 149 -134 71 -92 121 -145 190
-200 12 -10 22 -15 22 -13 0 3 10 -1 23 -10 54 -35 130 -52 222 -49 50 1 97 4
105 7 8 2 30 8 48 12 18 4 35 12 38 16 3 5 20 15 38 23 42 17 133 102 188 174
23 31 46 59 51 60 4 2 7 8 7 13 0 5 20 31 45 57 25 26 45 43 45 39 0 -4 8 -3
19 2 27 15 83 -4 114 -39 15 -16 27 -32 27 -35 0 -3 7 -13 15 -22 9 -10 41
-49 73 -88 55 -68 65 -78 127 -130 74 -62 190 -96 309 -91 155 8 270 76 392
232 123 157 146 178 192 177 22 0 50 -7 61 -15 11 -8 57 -61 102 -119 122
-155 178 -203 290 -248 88 -35 286 -35 324 0 5 5 16 9 25 9 23 0 102 54 153
104 50 50 70 74 124 147 94 127 139 149 212 101 23 -15 41 -32 41 -38 0 -7 3
-14 8 -16 4 -2 37 -42 74 -89 141 -182 263 -250 437 -244 103 4 115 6 177 38
98 50 157 132 213 293 24 72 28 78 56 81 65 8 143 68 161 123 12 39 11 101 -1
134 -14 38 -48 109 -56 116 -3 3 -16 23 -29 45 -49 83 -173 216 -290 310 -79
64 -196 145 -208 145 -4 0 -17 8 -28 18 -28 25 -286 154 -384 192 -47 17 -89
35 -95 38 -5 4 -12 7 -15 7 -3 1 -61 19 -130 42 -101 33 -227 71 -295 87 -5 2
-21 6 -35 9 -14 4 -36 9 -50 12 -14 3 -65 14 -115 25 -100 22 -101 22 -235 44
-52 9 -106 18 -119 21 -13 2 -47 7 -75 10 -28 2 -64 7 -81 10 -16 4 -50 8 -75
11 -25 2 -65 7 -90 10 -25 2 -67 6 -95 9 -27 2 -50 4 -50 5 0 0 -36 3 -80 6
-74 5 -130 10 -147 13 -8 1 -6 16 12 81 7 25 14 56 17 70 2 14 13 63 23 110
10 47 21 101 24 121 3 20 8 42 10 50 4 12 10 44 21 114 2 11 6 34 9 50 26 135
65 393 81 545 4 36 9 72 10 81 2 9 6 52 10 95 4 43 9 95 11 114 2 19 6 76 9
125 4 50 8 110 10 135 4 37 18 541 17 575 -1 6 -3 89 -6 185 -6 186 -10 244
-31 500 -5 54 -12 119 -20 190 -3 19 -7 58 -10 85 -3 28 -8 61 -10 75 -11 68
-27 169 -32 203 -3 21 -6 44 -7 50 -2 7 -6 28 -10 47 -4 19 -9 49 -11 65 -2
17 -4 31 -6 33 -2 3 -4 11 -14 67 -4 28 -10 55 -11 60 -2 6 -8 31 -13 56 -6
26 -20 84 -31 130 -12 46 -23 91 -25 99 -2 8 -12 49 -23 90 -12 41 -28 102
-37 135 -9 33 -19 67 -22 75 -3 8 -7 20 -9 25 -18 70 -97 301 -120 352 -8 17
-14 35 -14 40 0 8 -32 91 -70 178 -9 22 -28 67 -41 100 -13 33 -32 75 -41 93
-10 18 -18 39 -18 47 0 8 -4 15 -10 15 -5 0 -10 5 -10 12 0 30 -217 443 -296
565 -19 28 -34 54 -34 58 0 3 -5 11 -10 18 -23 26 -110 159 -110 167 0 5 -3
10 -7 12 -5 2 -28 30 -52 63 -63 83 -93 113 -132 129 -48 20 -137 18 -179 -4z
m310 -840 c7 -6 169 -335 195 -395 51 -119 69 -162 75 -180 5 -11 15 -36 23
-55 8 -19 26 -66 39 -105 12 -38 25 -72 28 -75 5 -4 36 -95 46 -135 2 -5 10
-30 19 -55 20 -53 94 -304 101 -339 3 -14 14 -56 24 -95 29 -106 82 -343 95
-423 2 -12 6 -34 9 -50 4 -15 9 -40 11 -56 3 -15 7 -39 10 -55 3 -15 7 -47 11
-72 3 -25 7 -52 9 -60 2 -8 7 -42 10 -75 4 -33 9 -71 11 -85 5 -26 11 -77 18
-157 3 -26 8 -74 11 -107 28 -276 37 -750 21 -1086 -7 -157 -9 -184 -21 -320
-3 -41 -8 -95 -10 -120 -2 -25 -7 -67 -10 -95 -3 -27 -8 -66 -10 -85 -2 -19
-6 -55 -10 -80 -3 -25 -8 -63 -10 -85 -3 -22 -7 -51 -10 -65 -2 -14 -7 -45
-10 -70 -3 -25 -10 -67 -15 -95 -5 -27 -12 -65 -15 -82 -3 -18 -7 -48 -10 -65
-3 -18 -11 -58 -17 -88 -6 -30 -12 -62 -13 -70 -2 -14 -17 -82 -59 -279 -9
-41 -26 -111 -37 -155 -22 -84 -27 -105 -35 -145 -3 -14 -7 -28 -10 -33 -3 -5
-7 -19 -10 -33 -2 -13 -23 -88 -45 -167 -23 -79 -42 -150 -44 -158 -1 -12 -33
-15 -199 -15 -216 0 -221 1 -206 57 5 15 5 28 1 28 -5 0 -5 19 -1 42 5 24 5
50 1 58 -4 8 -6 35 -4 60 2 25 3 52 3 60 0 8 0 31 1 50 1 19 1 44 0 55 -1 17
-1 55 -1 133 0 6 0 19 0 27 -1 8 0 40 0 70 1 30 -1 59 -4 64 -4 5 -2 12 4 16
6 4 8 11 4 16 -7 13 -9 138 -1 145 3 3 2 16 -2 28 -5 11 -5 30 -1 41 4 11 4
27 1 35 -4 8 -6 35 -4 60 2 25 3 52 4 60 0 33 0 176 0 190 -1 18 -1 110 0 125
0 10 0 198 -1 240 0 11 0 36 1 55 1 19 1 44 0 55 0 11 -1 43 -1 70 0 28 0 57
0 65 0 8 0 31 1 50 1 19 1 44 0 55 -1 17 -1 55 -1 133 0 6 0 18 -1 25 -1 6 -1
28 0 47 1 19 1 43 1 53 0 9 0 25 0 35 0 9 0 33 1 52 1 19 1 44 0 55 0 11 -1
43 -1 70 0 28 0 57 0 65 0 8 0 31 1 50 1 19 1 44 0 55 -1 17 -1 55 -1 133 0 6
0 18 -1 25 -1 6 -1 28 0 47 1 19 1 43 1 53 0 9 0 25 0 35 0 9 0 33 1 52 1 19
1 44 0 55 0 11 -1 43 -1 70 0 28 0 57 0 65 0 8 0 31 1 50 1 19 1 44 0 55 -1
17 -1 55 -1 133 0 6 0 18 -1 25 -1 6 -1 28 0 47 1 19 1 43 1 53 0 9 0 25 0 35
0 9 0 33 1 52 1 19 1 44 0 55 0 11 -1 43 -1 70 0 28 0 57 0 65 0 8 0 31 1 50
1 19 1 44 0 55 0 11 -1 43 -1 70 0 28 0 57 0 65 0 8 0 31 1 50 1 19 1 44 0 55
-1 20 -1 107 -1 135 1 29 1 175 1 190 -1 18 -1 111 0 125 0 6 0 64 -1 130 0
66 0 125 1 130 1 6 0 14 -1 20 -2 12 -2 127 0 140 2 6 1 15 0 20 -1 6 -1 30
-1 55 1 25 1 54 1 65 0 11 0 36 1 55 1 19 1 44 0 55 0 11 -1 43 -1 70 0 28 0
57 0 65 0 8 0 31 1 50 1 19 1 44 0 55 0 11 -1 43 -1 70 0 28 0 57 0 65 0 8 0
31 1 50 1 35 1 58 0 95 -1 11 -1 27 -1 35 0 8 0 44 0 80 -2 119 -2 120 17 80
10 -19 20 -37 23 -40z m-416 -2973 l-1 -2992 -189 0 c-119 0 -189 4 -190 10 0
6 -9 37 -19 70 -10 33 -17 60 -16 60 1 0 -2 12 -8 28 -11 27 -55 190 -71 257
-5 19 -24 103 -44 185 -20 83 -38 159 -41 170 -2 11 -6 31 -9 45 -11 52 -38
181 -42 208 -3 15 -7 34 -9 42 -2 8 -7 38 -11 65 -3 28 -8 53 -10 57 -2 3 -7
30 -10 60 -3 29 -8 56 -10 60 -2 3 -7 28 -10 55 -3 26 -7 59 -10 73 -10 52
-26 183 -39 310 -2 14 -4 25 -5 25 0 0 -3 27 -5 60 -2 33 -6 77 -9 98 -7 50
-18 216 -20 302 -1 39 -5 75 -8 80 -5 11 -1 755 5 825 3 25 8 86 11 135 4 50
9 108 12 130 2 22 7 65 9 95 8 95 17 161 30 245 5 32 13 86 20 145 2 19 7 46
10 60 3 14 8 37 10 53 3 15 7 39 10 55 2 15 7 38 10 52 2 14 7 36 9 50 3 14 7
36 11 50 10 47 15 70 20 98 3 15 8 35 11 44 3 10 8 30 11 45 8 42 11 58 13 58
1 0 3 7 5 15 1 8 10 42 19 75 9 33 19 71 21 85 2 14 20 77 40 140 19 63 37
122 39 130 2 8 20 62 40 120 20 58 39 112 41 120 6 22 74 202 85 225 8 17 30
70 35 85 1 3 6 16 12 30 6 14 21 48 32 75 37 85 205 425 211 425 3 0 5 -1347
4 -2993z m1466 -2862 c30 -2 69 -6 85 -9 17 -3 64 -8 105 -11 41 -3 84 -7 96
-9 11 -2 45 -7 75 -11 65 -7 90 -11 149 -20 25 -4 54 -9 65 -11 11 -2 47 -8
80 -14 33 -6 69 -13 80 -14 11 -2 31 -6 45 -9 14 -4 36 -9 50 -11 14 -2 66
-14 115 -26 50 -12 97 -24 105 -25 59 -15 243 -72 330 -104 176 -65 306 -126
450 -213 36 -21 74 -44 85 -51 11 -7 22 -14 25 -17 3 -3 34 -28 70 -57 36 -28
89 -76 118 -107 l53 -56 -26 -27 c-32 -35 -77 -127 -105 -215 -22 -69 -30 -75
-72 -59 -33 13 -56 36 -123 125 -170 227 -326 305 -540 272 -55 -9 -159 -53
-194 -82 -76 -64 -105 -97 -201 -223 -60 -79 -90 -101 -141 -101 -25 0 -42 10
-78 48 -25 26 -57 62 -71 81 -119 162 -218 240 -345 270 -79 18 -141 18 -241
-3 -87 -18 -209 -106 -278 -201 -11 -14 -27 -35 -35 -45 -9 -10 -27 -34 -41
-51 -65 -85 -78 -94 -129 -94 -59 0 -67 6 -171 141 -117 150 -184 205 -300
244 -71 24 -180 28 -250 10 -25 -6 -51 -12 -57 -12 -7 -1 -13 -5 -13 -10 0 -5
-4 -7 -8 -4 -10 6 -104 -53 -146 -92 -16 -15 -71 -80 -122 -144 -52 -64 -103
-122 -115 -128 -11 -7 -39 -9 -61 -6 -45 6 -63 24 -171 161 -34 43 -72 89 -84
102 -129 128 -291 172 -478 129 -5 -1 -27 -10 -49 -19 -21 -9 -42 -17 -47 -17
-5 0 -9 -4 -9 -9 0 -5 -9 -13 -20 -16 -34 -11 -141 -122 -212 -220 -59 -81
-91 -107 -140 -112 -51 -6 -68 8 -164 133 -151 198 -274 274 -440 275 -99 1
-138 -8 -220 -47 -80 -39 -147 -99 -220 -194 -27 -36 -51 -67 -54 -70 -3 -3
-16 -18 -28 -34 -12 -16 -22 -25 -23 -20 -2 18 3 116 6 133 3 18 17 130 21
176 1 17 3 32 4 35 3 8 6 32 8 60 2 19 19 38 63 70 33 25 73 54 87 66 68 53
269 164 402 222 93 40 276 103 373 128 39 10 58 14 78 19 11 2 28 6 37 9 9 3
28 7 42 10 14 2 59 11 100 19 119 25 133 27 175 32 22 3 51 7 65 10 14 3 48 8
76 10 28 3 62 8 75 10 13 3 57 8 97 11 65 5 72 4 72 -13 0 -10 13 -60 30 -112
16 -52 27 -98 24 -103 -3 -4 0 -8 7 -8 7 0 10 -3 7 -6 -4 -3 0 -21 8 -40 8
-19 15 -37 15 -41 12 -75 71 -142 139 -160 20 -5 366 -9 781 -8 645 0 749 2
764 15 10 8 19 13 20 10 1 -3 19 10 40 28 21 17 35 32 31 32 -3 0 0 10 8 23
11 17 50 131 62 182 1 6 17 61 35 123 l32 113 101 -6 c56 -3 126 -8 156 -10z"/>
<path d="M1630 4646 c-59 -21 -170 -120 -170 -150 0 -9 -4 -16 -10 -16 -5 0
-13 -18 -16 -40 -4 -22 -10 -40 -13 -40 -10 0 -4 -122 8 -166 11 -42 54 -115
90 -151 93 -97 268 -122 388 -57 158 87 225 267 160 427 -72 177 -260 260
-437 193z"/>
<path d="M510 4251 c-121 -44 -218 -127 -291 -253 -24 -40 -46 -75 -49 -78 -3
-3 -6 -11 -8 -19 -1 -7 -13 -27 -25 -45 -12 -17 -23 -37 -25 -45 -1 -7 -9 -20
-17 -28 -8 -8 -15 -21 -15 -29 0 -8 -4 -14 -9 -14 -5 0 -11 -9 -14 -20 -5 -20
0 -20 654 -20 362 0 659 3 659 6 0 6 -56 77 -83 106 -7 7 -32 38 -57 68 -25
30 -56 68 -70 85 -31 38 -137 144 -170 170 -36 29 -170 108 -170 100 0 -2 -17
3 -37 12 -54 23 -215 25 -273 4z"/>
<path d="M667 3404 c-1 -1 -27 -5 -57 -9 -82 -10 -253 -78 -281 -111 -6 -8
-15 -14 -20 -14 -12 0 -129 -116 -129 -128 0 -6 -4 -12 -8 -14 -22 -8 -106
-180 -117 -238 -1 -3 -5 -21 -10 -40 -13 -54 -24 -165 -27 -265 -1 -24 14
-191 17 -205 3 -8 7 -33 10 -55 8 -58 12 -78 34 -199 11 -60 20 -112 19 -115
0 -3 0 -8 2 -11 1 -3 4 -16 6 -29 2 -14 6 -26 8 -28 2 -3 261 255 326 325 38
41 121 143 168 207 28 39 55 75 60 80 4 6 19 28 32 50 13 22 27 42 30 45 4 3
10 12 13 20 4 8 17 31 29 50 61 100 149 311 162 387 2 15 5 28 6 28 2 0 3 8
14 95 13 109 15 121 20 129 7 11 -14 28 -34 29 -8 0 -40 3 -70 7 -57 7 -198
13 -203 9z"/>
</g>
</svg>
